# xmcd CD database file
#
# Track frame offsets:
#	150
#	19762
#	43481
#	74783
#	104087
#	134389
#	156975
#	184377
#	204851
#	226660
#	253577
#	278304
#
# Disc length: 4045 seconds
#
# Revision: 0
# Processed by: cddbd v1.5.2PL0 Copyright (c) Steve Scherf et al.
# Submitted via: CDex 1.70beta2
#
DISCID=af0fcb0c
DTITLE=Soweto Kinch, Jamie Oehlers, Mark Small, Walter Smith, Lynne Arriale - Virtuosic Saxophones
DYEAR=2002
DGENRE=Jazz
TTITLE0=Sonny Moon For Two (Sonny Rollins)
TTITLE1=Blue 7 (Sonny Rollins)
TTITLE2=Bye Bye Blackbird (Dixon/Henderson)
TTITLE3=Darn That Dream (De Lange/Van Heusen)
TTITLE4=Ballad (Mark Small)
TTITLE5=Peace (Horace Silver)
TTITLE6=Night And Day (Cole Porter)
TTITLE7=Three Little Words (Kalmar)
TTITLE8=Jr. Blutain (Jeff Watts)
TTITLE9=Mysterioso (Thelonius Monk)
TTITLE10=All The Things You Are (Kern/Hammerstein)
TTITLE11=My Shining Hour (Arlen/Mercer)
EXTD=YEAR: 2002
EXTT0=
EXTT1=
EXTT2=
EXTT3=
EXTT4=
EXTT5=
EXTT6=
EXTT7=
EXTT8=
EXTT9=
EXTT10=
EXTT11=
PLAYORDER=
